<svg width="26" height="26" viewBox="0 0 26 26" fill="none" xmlns="http://www.w3.org/2000/svg">
<path d="M24 12C24 18.6274 18.6274 24 12 24C5.37258 24 0 18.6274 0 12C0 5.37258 5.37258 0 12 0C18.6274 0 24 5.37258 24 12ZM2.4 12C2.4 17.3019 6.69807 21.6 12 21.6C17.3019 21.6 21.6 17.3019 21.6 12C21.6 6.69807 17.3019 2.4 12 2.4C6.69807 2.4 2.4 6.69807 2.4 12Z" fill="#A3C2FF"/>
<path d="M26 23C26 24.6569 24.6569 26 23 26C21.3431 26 20 24.6569 20 23C20 21.3431 21.3431 20 23 20C24.6569 20 26 21.3431 26 23ZM22.1 23C22.1 23.4971 22.5029 23.9 23 23.9C23.4971 23.9 23.9 23.4971 23.9 23C23.9 22.5029 23.4971 22.1 23 22.1C22.5029 22.1 22.1 22.5029 22.1 23Z" fill="#A3C2FF"/>
</svg>
